<svg xmlns="http://www.w3.org/2000/svg" width="25" height="25" viewBox="0 0 25 25">
  <g fill="none" fill-rule="evenodd" transform="translate(.5 .5)">
    <rect width="24.5" height="24.5" x="-.25" y="-.25" fill="#279989" stroke="#1E282A" stroke-width=".5" rx="12.25"/>
    <g fill-rule="nonzero" transform="translate(5 5)">
      <path fill="#F8F8F8"
            d="M0.318181798,12.7272745 C0.318181798,13.2541837 0.745818134,13.6818201 1.27272719,13.6818201 L10.4999993,13.6818201 L13.6818173,10.5000015 L13.6818173,4.77272795 L0.318181798,4.77272795 L0.318181798,12.7272745 Z"/>
      <rect width="13.364" height="1" x=".318" y="4.773" fill="#000" opacity=".1"/>
      <path fill="#E04F39"
            d="M12.7272719,1.59090932 L1.27272719,1.59090932 C0.745818134,1.59090932 0.318181798,2.01854574 0.318181798,2.54545491 L0.318181798,4.77272795 L13.6818173,4.77272795 L13.6818173,2.54545491 C13.6818173,2.01854574 13.254181,1.59090932 12.7272719,1.59090932 Z"/>
      <path fill="#FFF"
            d="M1.27272719,1.59090932 L12.7272719,1.59090932 C13.254181,1.59090932 13.6818173,2.01854574 13.6818173,2.54545491 L13.6818173,2.54545491 L13.6818173,2.54545491 L0.318181798,2.54545491 L0.318181798,2.54545491 L0.318181798,2.54545491 C0.318181798,2.01854574 0.745818134,1.59090932 1.27272719,1.59090932 Z"
            opacity=".2"/>
      <path fill="#000"
            d="M13.6818173,10.5000015 L11.4545447,10.5000015 C10.9276357,10.5000015 10.4999993,10.9276379 10.4999993,11.4545471 L10.4999993,13.6818201 L13.6818173,10.5000015 Z"
            opacity=".1"/>
      <g fill="#1E282A">
        <path
          d="M12.7272719,1.27272745 L10.8181811,1.27272745 L10.8181811,0.318181864 C10.8181811,0.142545475 10.6756357,0 10.5,0 C10.324363,0 10.1818175,0.142545475 10.1818175,0.318181864 L10.1818175,1.27272745 L4.45454517,1.27272745 L4.45454517,0.318181864 C4.45454517,0.142545475 4.31199973,0 4.13636337,0 C3.96072702,0 3.81818157,0.142545475 3.81818157,0.318181864 L3.81818157,1.27272745 L1.27272719,1.27272745 C0.569545418,1.27272745 0,1.84227299 0,2.54545491 L0,12.7272745 C0,13.4304565 0.569545418,14 1.27272719,14 L10.5,14 C10.5839993,13.9987293 10.6641811,13.9643656 10.7227266,13.9045474 L13.9045446,10.7227288 C13.9656355,10.6648197 14,10.5840015 14,10.5 L14,10.5 L14,2.54545491 C14,1.84227299 13.4304537,1.27272745 12.7272719,1.27272745 Z M1.27272719,1.90909118 L3.81818157,1.90909118 L3.81818157,2.54545491 C3.46690887,2.54545491 3.18181798,2.83054586 3.18181798,3.18181864 C3.18181798,3.53309141 3.46690887,3.81818236 3.81818157,3.81818236 C4.12554519,3.824546 4.39345427,3.61009142 4.45454517,3.30909138 C4.4628179,3.26709138 4.4628179,3.22381864 4.45454517,3.18181864 L4.45454517,1.90909118 L10.1818175,1.90909118 L10.1818175,2.54545491 C9.83054483,2.54545491 9.54545394,2.83054586 9.54545394,3.18181864 C9.54545394,3.53309141 9.83054483,3.81818236 10.1818175,3.81818236 C10.4891811,3.824546 10.7570902,3.61009142 10.8181811,3.30909138 C10.8264539,3.26709138 10.8264539,3.22381864 10.8181811,3.18181864 L10.8181811,1.90909118 L12.7272719,1.90909118 C13.0785446,1.90909118 13.3636355,2.19418213 13.3636355,2.54545491 L13.3636355,4.45454609 L0.636363596,4.45454609 L0.636363596,2.54545491 C0.636363596,2.19418213 0.921454487,1.90909118 1.27272719,1.90909118 Z M10.1818175,11.4545471 L10.1818175,13.3636383 L1.27272719,13.3636383 C0.921454487,13.3636383 0.636363596,13.0785473 0.636363596,12.7272745 L0.636363596,5.09090982 L13.3636355,5.09090982 L13.3636355,10.1818196 L11.4545447,10.1818196 C10.751363,10.1818196 10.1818175,10.7513652 10.1818175,11.4545471 Z M10.8181811,12.91182 L10.8181811,11.4545471 C10.8181811,11.1032743 11.103272,10.8181834 11.4545447,10.8181834 L12.9118174,10.8181834 L10.8181811,12.91182 Z"/>
        <path
          d="M6.36363596 8.27272845C6.36363596 7.56954654 5.79409054 7.000001 5.09090877 7.000001 4.38772699 7.000001 3.81818157 7.56954654 3.81818157 8.27272845 3.81818157 8.44836484 3.96072702 8.59091032 4.13636337 8.59091032 4.31199973 8.59091032 4.45454517 8.44836484 4.45454517 8.27272845 4.45454517 7.92145568 4.73963606 7.63636473 5.09090877 7.63636473 5.44218147 7.63636473 5.72727236 7.92145568 5.72727236 8.27272845 5.726636 8.60681941 5.60763601 8.92945582 5.38999966 9.18272858L3.89454521 10.9263652C3.77872703 11.0580925 3.7914543 11.2591834 3.92381793 11.375638 3.98236338 11.4271835 4.05809065 11.4551835 4.13636337 11.4545577L6.04545416 11.4545577C6.22109051 11.4545577 6.36363596 11.3120016 6.36363596 11.1363652 6.36363596 10.9607288 6.22109051 10.8181834 6.04545416 10.8181834L4.82999969 10.8181834 5.87363599 9.59636501C6.18927233 9.22791041 6.36363596 8.75827398 6.36363596 8.27272845ZM9.22727214 7.63636473C9.40290849 7.63636473 9.54545394 7.49381925 9.54545394 7.31818286 9.54545394 7.14254647 9.40290849 7.000001 9.22727214 7.000001L7.63636315 7.000001C7.48109043 7.00127373 7.34936317 7.11391011 7.32454499 7.26727377L7.00636319 9.17636495C6.97454501 9.34881952 7.08845409 9.51491045 7.26090863 9.547365 7.36527226 9.56709228 7.47281771 9.53272863 7.54727225 9.45636499 7.70699951 9.30236497 7.92399949 9.22218314 8.14545403 9.23363768 8.565454 9.2368195 8.90590852 9.5772741 8.90909034 9.99727416L8.90909034 10.1818196C8.90909034 10.5330924 8.62399945 10.8181834 8.27272675 10.8181834 7.92145404 10.8181834 7.63636315 10.5330924 7.63636315 10.1818196 7.63636315 10.0061832 7.4938177 9.86363777 7.31818135 9.86363777 7.142545 9.86363777 6.99999955 10.0061832 6.99999955 10.1818196 6.99999955 10.8850016 7.56954497 11.4545471 8.27272675 11.4545471 8.97590852 11.4545471 9.54545394 10.8850016 9.54545394 10.1818196L9.54545394 9.99727416C9.51618121 9.1929104 8.84099944 8.56418304 8.03663585 8.59345577 7.9360904 8.59727396 7.83618132 8.61127396 7.73818132 8.63545578L7.90363586 7.63636473 9.22727214 7.63636473Z"/>
      </g>
    </g>
  </g>
</svg>
