<svg xmlns="http://www.w3.org/2000/svg" viewBox="0 0 500 500" id="checkbook">
  <rect width="422.5" height="216.75" x="19.5" y="160.19" fill="#898989" rx="15.78" ry="15.78"></rect>
  <circle cx="49" cy="216" r="7" fill="#fff"></circle>
  <circle cx="42.5" cy="181.5" r="15.5" fill="#fff"></circle>
  <path fill="#fff"
        d="M441.85,173.84c-.7-.1-1.41-.15-2.13-.15H48.78c-8.71,0-15.78,7.06-15.78,15.78v185.19c0,.72,.05,1.43,.15,2.13-7.7-1.03-13.65-7.64-13.65-15.63V175.97c0-8.72,7.07-15.78,15.78-15.78H426.22c7.99,0,14.6,5.94,15.63,13.65Z"></path>
  <path fill="#595959"
        d="M435.45,183.73v169.8c0,7.99-6.48,14.47-14.47,14.47H51.52c-7.99,0-14.47-6.48-14.47-14.47v-5.27c1.88,.9,3.99,1.4,6.22,1.4H412.73c7.99,0,14.47-6.48,14.47-14.47V170.66c4.88,2.32,8.25,7.3,8.25,13.07Z"></path>
  <path fill="none" stroke="#000" stroke-linecap="round" stroke-miterlimit="10" stroke-width="5.84"
        d="M334.9 160.19h91.32c8.72 0 15.78 7.07 15.78 15.78v185.19c0 8.72-7.07 15.78-15.78 15.78H71M54.93 376.94h-19.65c-8.72 0-15.78-7.07-15.78-15.78V175.97c0-8.72 7.07-15.78 15.78-15.78H305.02"></path>
  <rect width="360" height="187" x="61.5" y="171.5" fill="#efefef" rx="15.78" ry="15.78"></rect>
  <path fill="none" stroke="#000" stroke-linecap="round" stroke-miterlimit="10" stroke-width="5.03"
        d="M61.5,204.65v-17.36c0-8.72,7.07-15.78,15.78-15.78H405.72c8.72,0,15.78,7.07,15.78,15.78v157.43c0,8.72-7.07,15.78-15.78,15.78H77.28c-8.72,0-15.78-7.07-15.78-15.78v-120.82"></path>
  <path fill="#efefef"
        d="M392.24,351.94H123.24c-22.19,0-40.18-17.99-40.18-40.18V182.33c0-1.87,1.52-3.39,3.39-3.39H393.78c4.07,0,7.87,1.14,11.1,3.12,6.1,3.74,10.18,10.47,10.18,18.16v128.9c0,12.6-10.22,22.82-22.82,22.82Z"></path>
  <circle cx="169" cy="207" r="5" fill="#fff"></circle>
  <circle cx="162.5" cy="190.5" r="8.5" fill="#fff"></circle>
  <path fill="#fff"
        d="M413.7,192.7c-.29-.21-.58-.4-.88-.58-3.23-1.98-7.03-3.12-11.1-3.12H94.39c-1.87,0-3.39,1.52-3.39,3.39v129.43c0,7.09,1.84,13.74,5.06,19.52-7.99-7.33-13-17.87-13-29.58V182.33c0-1.87,1.52-3.39,3.39-3.39H393.78c4.07,0,7.87,1.14,11.1,3.12,4,2.45,7.13,6.19,8.82,10.64Z"></path>
  <path fill="#efefef"
        d="M152.94,178.94v142.21c0,1-1.39,1.28-1.76,.35-5.15-12.82-17.7-21.88-32.36-21.88s-27.49,9.27-32.52,22.32c-.41,1.06-1.97,.79-1.97-.34V179.68c.59-.46,1.32-.74,2.12-.74h66.49Z"></path>
  <circle cx="379.5" cy="296.5" r="8.5" fill="#d3cfcf"></circle>
  <circle cx="389" cy="325" r="15" fill="#d3cfcf"></circle>
  <path fill="#d3cfcf"
        d="M407.69,203.98v121.51c0,11.88-9.63,21.51-21.51,21.51H132.6c-14.16,0-26.51-7.78-33-19.29,5.43,3.02,11.68,4.73,18.34,4.73h253.58c11.88,0,21.51-9.63,21.51-21.51v-121.51c0-1.7-.22-3.36-.61-4.93,2.04,.49,3.95,1.3,5.68,2.37,5.75,3.53,9.6,9.87,9.6,17.12Z"></path>
  <path fill="#d3cfcf"
        d="M152.94,178.94v142.21c0,1-1.39,1.28-1.76,.35-5.15-12.82-17.7-21.88-32.36-21.88s-27.49,9.27-32.52,22.32c-.41,1.06-1.97,.79-1.97-.34V179.68c.59-.46,1.32-.74,2.12-.74h66.49Z"></path>
  <path fill="none" stroke="#000" stroke-linecap="round" stroke-miterlimit="10" stroke-width="5"
        d="M203.2 178.94h190.58c4.07 0 7.87 1.14 11.1 3.12 6.1 3.74 10.18 10.47 10.18 18.16v128.9c0 12.6-10.22 22.82-22.82 22.82h-11.54s-4.73 0-4.77 0M361.52 351.94c-.12 0-4.92 0-5.04 0-.37 0-217.03 0-233.25 0-2.68 0-16.91-.27-28.41-11.77-7.27-7.27-11.77-17.31-11.77-28.41V182.33c0-1.87 1.52-3.39 3.39-3.39h94.21"></path>
  <path fill="#efefef"
        d="M146.28,162.67c.41,3.57,.24,7.07-.45,10.37v134.23c0,.92-1.28,1.18-1.62,.33-4.72-11.77-16.25-20.09-29.71-20.09s-25.24,8.51-29.86,20.5c-.37,.97-1.81,.73-1.81-.32V171.08c-.22-1.49-.33-3.02-.33-4.58,0-18.3,15.36-33.01,33.89-31.95,15.35,.88,28.11,12.85,29.89,28.12Z"></path>
  <path fill="#d3cfcf"
        d="M141.5 149.31c-4.4-2.74-9.51-4.44-14.94-4.76-18.53-1.06-33.89 13.65-33.89 31.95 0 1.56.11 3.09.33 4.58v114.73c-3.66 3.33-6.55 7.49-8.36 12.19-.38.97-1.81.72-1.81-.32V171.08c-.22-1.49-.33-3.02-.33-4.58 0-18.3 15.36-33.01 33.89-31.95 10.45.61 19.7 6.34 25.11 14.76zM145.83 305.5v1.77c0 .92-1.28 1.18-1.62.32-.75-1.87-1.68-3.65-2.75-5.33 1.55.96 3.01 2.04 4.37 3.24z"></path>
  <path fill="#fff"
        d="M145.83,173.04v134.23c0,.92-1.28,1.18-1.62,.32-4.73-11.77-16.25-20.09-29.71-20.09s-25.24,8.51-29.86,20.5c-.38,.97-1.81,.72-1.81-.32v-29.09c5.81-5.92,13.9-9.59,22.84-9.59,13.46,0,24.98,8.32,29.71,20.09,.34,.86,1.62,.6,1.62-.32V154.54c.69-3.28,.86-6.75,.46-10.31,4.77,4.9,8,11.31,8.82,18.44,.41,3.58,.24,7.07-.45,10.37Z"></path>
  <path fill="none" stroke="#000" stroke-linecap="round" stroke-miterlimit="10" stroke-width="5"
        d="M145.83,291.13v3.47s0,12.67,0,12.67c0,.92-1.28,1.18-1.62,.33-4.72-11.77-16.25-20.09-29.71-20.09s-25.24,8.51-29.86,20.5c-.37,.97-1.81,.73-1.81-.32V171.08c-.22-1.49-.33-3.02-.33-4.58,0-18.3,15.36-33.01,33.89-31.95,15.35,.88,28.11,12.85,29.89,28.12,.41,3.57,.24,7.07-.45,10.37v98.91s0,6.05,0,6.05"></path>
  <g>
    <path fill="#ff8500"
          d="M230.15,269.48c-3.52-4.31-10.16-8.54-19.92-12.67-2.04-.86-4.86-2-8.45-3.41-11.67-4.58-17.5-9.44-17.5-14.57,0-3.31,1.19-5.94,3.58-7.87,2.38-1.93,5.64-2.89,9.77-2.89s7.85,1.03,10.76,3.1c1.65,1.17,3.17,2.74,4.57,4.7,2.08,2.92,5.79,4.18,9.15,2.95l2.85-1.04c4.88-1.79,6.68-7.73,3.64-11.94-2.21-3.07-4.88-5.62-7.99-7.64-3.91-2.53-8.5-4.18-13.75-4.99v-9.99c0-4.32-3.5-7.82-7.82-7.82h0c-4.32,0-7.82,3.5-7.82,7.82v10.03c-6.33,1.03-11.71,3.36-16.11,7.04-6.11,5.11-9.16,11.75-9.16,19.92,0,4.81,1.02,9.13,3.07,12.94,2.04,3.81,4.99,6.95,8.85,9.4,3.9,2.54,10.83,5.63,20.77,9.26,1.45,.5,2.56,.91,3.34,1.23,5.68,2.09,9.6,4.19,11.78,6.3s3.27,4.73,3.27,7.87c0,3.95-1.48,7.08-4.43,9.4-2.95,2.32-6.97,3.47-12.05,3.47-4.49,0-8.39-1.24-11.68-3.71-2-1.5-3.89-3.55-5.66-6.13-2.16-3.15-6.21-4.39-9.7-2.84l-3.23,1.44c-4.5,2-6.02,7.61-3.22,11.66,2.8,4.04,6.21,7.33,10.23,9.87,4.08,2.58,8.72,4.34,13.93,5.29v5.09c0,4.32,3.5,7.82,7.82,7.82h0c4.32,0,7.82-3.5,7.82-7.82v-4.58c7.94-.83,14.41-3.38,19.37-7.71,6.13-5.36,9.19-12.71,9.19-22.07,0-6.95-1.76-12.57-5.28-16.89Z"></path>
    <g>
      <path fill="#fff"
            d="M173.52 287.37l-3.23 1.43c-4.5 2-6.02 7.61-3.21 11.66 1.77 2.55 3.77 4.8 6.02 6.74-.93-1.04-1.78-2.14-2.59-3.3-2.8-4.05-1.28-9.65 3.22-11.66l3.23-1.43c2.29-1.02 4.83-.83 6.92.32-.23-.3-.44-.6-.66-.93-2.16-3.14-6.21-4.39-9.7-2.83zM194.68 319.07c-1.18-.22-2.32-.47-3.45-.76v2.42c0 3.05 1.75 5.68 4.3 6.97-.55-1.06-.85-2.26-.85-3.53v-5.09zM169.41 243.64c0-8.18 3.06-14.81 9.17-19.92 4.39-3.68 9.77-6.01 16.11-7.04v-10.03c0-2.15.88-4.11 2.28-5.52 1.42-1.42 3.37-2.29 5.53-2.29 1.27 0 2.47.3 3.53.84-1.29-2.54-3.94-4.28-6.98-4.28-2.15 0-4.11.88-5.52 2.29-1.42 1.42-2.29 3.37-2.29 5.52v10.03c-6.33 1.03-11.71 3.36-16.11 7.03-6.11 5.11-9.16 11.75-9.16 19.92 0 4.81 1.02 9.13 3.07 12.94 1.52 2.84 3.54 5.31 6.07 7.38-1-1.22-1.88-2.54-2.63-3.95-2.05-3.81-3.07-8.13-3.07-12.93zM215.61 238.26c-1.05-1.33-2.17-2.45-3.37-3.36.25.31.49.63.73.97.72 1 1.62 1.81 2.64 2.39zM215.4 281.29c1.1 1.71 1.64 3.67 1.64 5.89 0 3.96-1.47 7.09-4.43 9.4-2.95 2.31-6.97 3.47-12.06 3.47-4.49 0-8.38-1.24-11.68-3.71-.15-.11-.31-.24-.46-.37 1.25 1.52 2.55 2.78 3.91 3.8 3.29 2.47 7.18 3.71 11.68 3.71 5.08 0 9.1-1.15 12.06-3.47 2.95-2.31 4.42-5.45 4.42-9.39 0-3.13-1.09-5.76-3.27-7.86-.51-.49-1.11-.99-1.81-1.47zM220.62 218.19c-3.03-1.96-6.48-3.4-10.31-4.31v2.77c5.25.8 9.84 2.45 13.75 4.99 1.07.69 2.08 1.44 3.03 2.26-1.87-2.22-4.03-4.13-6.47-5.7z"></path>
      <path fill="#fff"
            d="M183.89 291.13c1.44 1.96 2.96 3.59 4.53 4.84-.6-.72-1.19-1.49-1.76-2.32-.74-1.08-1.69-1.93-2.78-2.52zM201.99 273.02c-.77-.31-1.89-.73-3.34-1.23-9.94-3.63-16.86-6.71-20.77-9.26-.98-.62-1.91-1.29-2.78-2.01 1.71 2.09 3.79 3.91 6.22 5.46 3.9 2.54 10.83 5.63 20.77 9.26 1.45.5 2.56.91 3.33 1.23 4.35 1.6 7.67 3.2 9.97 4.82-.44-.7-.99-1.36-1.62-1.97-2.18-2.11-6.11-4.21-11.78-6.3z"></path>
    </g>
    <g>
      <path fill="#ff6700"
            d="M181.86 288.32c.27.39.53.76.82 1.13-.17-.12-.34-.24-.5-.36-1.22-.92-2.41-2.06-3.54-3.43 1.27.55 2.39 1.46 3.22 2.67zM171.31 302.21c3.83 2.42 8.19 4.07 13.07 4.96v3.77c-2.91-.93-5.6-2.17-8.07-3.73-3.05-1.93-5.73-4.32-8.03-7.18.97.79 1.98 1.51 3.03 2.18zM199.06 201.68c0-.71-.1-1.4-.29-2.05 3.06.89 5.29 3.71 5.29 7.04v5.48c-1.59-.47-3.25-.84-5-1.11v-9.37zM176.13 232.36c0-3.49 1.13-6.26 3.36-8.29 2.24-2.04 5.3-3.05 9.17-3.05s7.37 1.09 10.1 3.26c1.54 1.23 2.98 2.89 4.29 4.96.05.08.1.16.15.23-2.62-1.89-5.8-2.84-9.54-2.84s-6.93 1.01-9.17 3.05c-2.23 2.03-3.36 4.79-3.36 8.29 0 1.29.31 2.57.94 3.82-3.96-3.04-5.94-6.19-5.94-9.43zM209.52 233.38c-.67-.95-1.37-1.79-2.11-2.54 1.75.85 3.78 1.02 5.7.31l2.68-.98c4.58-1.67 6.27-7.26 3.42-11.21-.21-.29-.43-.58-.65-.86 2.14 1.65 4.02 3.61 5.64 5.86 2.85 3.95 1.16 9.53-3.42 11.21l-2.68.98c-3.15 1.16-6.64-.03-8.58-2.76zM230.86 284.72c0 8.78-2.88 15.68-8.63 20.71-4.64 4.07-10.72 6.45-18.17 7.24v4.3c0 2.03-.82 3.86-2.15 5.18-1.33 1.33-3.16 2.15-5.19 2.15-3.34 0-6.16-2.23-7.04-5.29.65.19 1.34.29 2.05.29 2.03 0 3.86-.82 5.19-2.15 1.33-1.32 2.15-3.15 2.15-5.18v-4.3c7.45-.79 13.53-3.17 18.17-7.24 5.75-5.02 8.63-11.93 8.63-20.7 0-5.98-1.39-10.92-4.16-14.81 1.72 1.31 3.13 2.63 4.21 3.96 3.3 4.05 4.95 9.33 4.95 15.85z"></path>
    </g>
    <path fill="none" stroke="#000" stroke-linecap="round" stroke-miterlimit="10" stroke-width="3.85"
          d="M168.06,229.52c-1.4,3.21-2.09,6.76-2.09,10.67,0,4.81,1.02,9.13,3.07,12.94,2.04,3.81,4.99,6.95,8.85,9.4,3.9,2.54,10.83,5.63,20.77,9.26,1.45,.5,2.56,.91,3.34,1.23,5.68,2.09,9.6,4.19,11.78,6.3s3.27,4.73,3.27,7.87c0,3.95-1.48,7.08-4.43,9.4-2.95,2.32-6.97,3.47-12.05,3.47-4.49,0-8.39-1.24-11.68-3.71-2-1.5-3.89-3.55-5.66-6.13-2.16-3.15-6.21-4.39-9.7-2.84l-3.23,1.44c-4.5,2-6.02,7.61-3.22,11.66,2.8,4.04,6.21,7.33,10.23,9.87,4.08,2.58,8.72,4.34,13.93,5.29v5.09c0,4.32,3.5,7.82,7.82,7.82h0c4.32,0,7.82-3.5,7.82-7.82v-4.58c7.94-.83,14.41-3.38,19.37-7.71,6.13-5.36,9.19-12.71,9.19-22.07,0-6.95-1.76-12.57-5.28-16.89-3.52-4.31-10.16-8.54-19.92-12.67-2.04-.86-4.86-2-8.45-3.41-11.67-4.58-17.5-9.44-17.5-14.57,0-3.31,1.19-5.94,3.58-7.87,2.38-1.93,5.64-2.89,9.77-2.89s7.85,1.03,10.76,3.1c1.65,1.17,3.17,2.74,4.57,4.7,2.08,2.92,5.79,4.18,9.15,2.95l2.85-1.04c4.88-1.79,6.68-7.73,3.64-11.94-2.21-3.07-4.88-5.62-7.99-7.64-3.91-2.53-8.5-4.18-13.75-4.99v-9.99c0-4.32-3.5-7.82-7.82-7.82h0c-4.32,0-7.82,3.5-7.82,7.82v10.03c-6.33,1.03-11.71,3.36-16.11,7.04"></path>
  </g>
  <line x1="340" x2="385.5" y1="303.5" y2="303.5" fill="#898989" stroke="#000" stroke-linecap="round"
        stroke-miterlimit="10" stroke-width="10.54"></line>
  <line x1="249" x2="323.5" y1="303.5" y2="303.5" fill="#898989" stroke="#000" stroke-linecap="round"
        stroke-miterlimit="10" stroke-width="10.54"></line>
  <line x1="340" x2="385.5" y1="276.5" y2="276.5" fill="#898989" stroke="#000" stroke-linecap="round"
        stroke-miterlimit="10" stroke-width="10.54"></line>
  <line x1="249" x2="323.5" y1="276.5" y2="276.5" fill="#898989" stroke="#000" stroke-linecap="round"
        stroke-miterlimit="10" stroke-width="10.54"></line>
  <line x1="340" x2="385.5" y1="249.5" y2="249.5" fill="#898989" stroke="#000" stroke-linecap="round"
        stroke-miterlimit="10" stroke-width="10.54"></line>
  <line x1="249" x2="323.5" y1="249.5" y2="249.5" fill="#898989" stroke="#000" stroke-linecap="round"
        stroke-miterlimit="10" stroke-width="10.54"></line>
  <line x1="340" x2="385.5" y1="222.5" y2="222.5" fill="#898989" stroke="#000" stroke-linecap="round"
        stroke-miterlimit="10" stroke-width="10.54"></line>
  <line x1="249" x2="323.5" y1="222.5" y2="222.5" fill="#898989" stroke="#000" stroke-linecap="round"
        stroke-miterlimit="10" stroke-width="10.54"></line>
  <g>
    <path fill="#898989"
          d="M333.56,314.05h0c-11.29-7.4-14.45-22.56-7.05-33.85l80.93-123.47c4.92-7.51,14.99-9.6,22.5-4.68l13.72,8.99c7.51,4.92,9.6,14.99,4.68,22.5l-80.93,123.47c-7.4,11.29-22.56,14.45-33.85,7.05Z"></path>
    <circle cx="405.33" cy="178.1" r="9.5" fill="#fff"></circle>
    <circle cx="398.93" cy="192.44" r="5" fill="#fff"></circle>
    <circle cx="348.72" cy="298.22" r="11" fill="#595959"></circle>
    <circle cx="358.58" cy="283.17" r="5" fill="#595959"></circle>
    <path fill="#fff"
          d="M450.96,175.95c-1.24-2.32-3.06-4.37-5.42-5.92l-13.72-8.99c-7.51-4.92-17.58-2.83-22.5,4.68l-80.93,123.47c-2.79,4.26-4.07,9.06-4,13.8-3-7.23-2.49-15.76,2.12-22.8l80.93-123.47c4.92-7.51,14.99-9.61,22.5-4.68l13.72,8.99c5.15,3.38,7.75,9.18,7.29,14.92Z"></path>
    <path fill="#595959"
          d="M441.16,186.38l-74.41,113.52c-6.8,10.38-19.7,13.97-28.78,8.01-6.1-4-8.94-11.28-8.09-18.78,1.37,3.18,3.57,5.93,6.56,7.89,9.09,5.96,21.98,2.37,28.78-8.01l74.41-113.52c1.08-1.65,1.83-3.41,2.26-5.19,2.81,4.48,2.7,10.83-.74,16.08Z"></path>
    <path fill="none" stroke="#000" stroke-linecap="round" stroke-miterlimit="10" stroke-width="5"
          d="M369.1,215.23l38.35-58.51c4.92-7.51,14.99-9.6,22.5-4.68l13.72,8.99c7.51,4.92,9.6,14.99,4.68,22.5l-80.93,123.47c-7.4,11.29-22.56,14.45-33.85,7.05h0c-11.29-7.4-14.45-22.56-7.05-33.85l33.83-51.61"></path>
    <path fill="#595959"
          d="M314.19,343.55h0c-3.22-2.11-4.12-6.43-2.01-9.65l15.51-23.67,11.66,7.64-15.51,23.67c-2.11,3.22-6.43,4.12-9.65,2.01Z"></path>
    <path fill="none" stroke="#000" stroke-miterlimit="10" stroke-width="5"
          d="M316.89,311.17h13.94v28.3c0,3.85-3.12,6.97-6.97,6.97h0c-3.85,0-6.97-3.12-6.97-6.97v-28.3h0Z"
          transform="rotate(33.24 323.883 328.848)"></path>
    <rect width="11.23" height="19.16" x="393.74" y="146.74" fill="#595959" rx="5.62" ry="5.62"
          transform="rotate(-56.76 399.331 156.327)"></rect>
    <rect width="19.16" height="11.23" x="389.77" y="150.71" fill="none" stroke="#000" stroke-miterlimit="10"
          stroke-width="5" rx="5.62" ry="5.62" transform="rotate(33.24 399.385 156.35)"></rect>
    <rect width="74.01" height="10.9" x="339.34" y="166.66" fill="#595959" rx="5.45" ry="5.45"
          transform="rotate(-56.76 376.314 172.109)"></rect>
    <rect width="10.9" height="74.01" x="370.89" y="135.1" fill="none" stroke="#000" stroke-miterlimit="10"
          stroke-width="5" rx="5.45" ry="5.45" transform="rotate(33.24 376.369 172.142)"></rect>
    <rect width="19" height="55" x="415.91" y="146.42" fill="#898989" rx="4.69" ry="4.69"
          transform="rotate(-56.76 425.38 173.927)"></rect>
    <path fill="#fff"
          d="M451.14,184.82s-.09-.07-.14-.11l-38.15-25.01c-2.17-1.42-5.07-.81-6.49,1.35l-5.27,8.05c-.03,.05-.07,.1-.09,.16-2.05-1.45-2.59-4.27-1.21-6.39l5.27-8.05c1.42-2.17,4.33-2.77,6.49-1.35l38.15,25.01c2.12,1.39,2.74,4.19,1.44,6.34Z"></path>
    <path fill="#595959"
          d="M446.62,184.19l-3.33,5.08c-.9,1.37-2.73,1.75-4.1,.85l-34.13-22.37c-1.37-.9-1.75-2.73-.85-4.1l.8-1.22,32.91,21.57c1.37,.9,3.2,.51,4.1-.85l2.53-3.86,1.22,.8c1.37,.9,1.75,2.73,.85,4.1Z"></path>
    <path fill="none" stroke="#000" stroke-linecap="round" stroke-miterlimit="10" stroke-width="5"
          d="M435.12,191.65c1.63,1.21,2.62,1.71,4.15,2.72,.26,.17,1.67,1.06,3.53,.67,1.18-.24,2.26-.94,2.97-2.02l5.27-8.04c1.42-2.17,.82-5.08-1.35-6.5l-38.15-25.01c-2.17-1.42-5.08-.82-6.5,1.35l-5.27,8.04c-.71,1.08-.91,2.35-.67,3.53,.32,1.56,1.48,2.53,2.02,2.97,5.39,4.38,20.89,13.74,23.93,15.63"></path>
    <rect width="16" height="41" x="434.13" y="127.91" fill="#898989" rx="4.69" ry="4.69"
          transform="rotate(-56.76 442.102 148.42)"></rect>
    <path fill="#fff"
          d="M461.18,156.73s-.09-.07-.14-.11l-26.45-17.33c-2.17-1.42-5.07-.81-6.49,1.35l-3.63,5.54c-.03,.05-.07,.1-.09,.16-2.05-1.45-2.59-4.27-1.21-6.39l3.63-5.54c1.42-2.17,4.33-2.77,6.49-1.35l26.45,17.33c2.12,1.39,2.74,4.19,1.44,6.34Z"></path>
    <path fill="#595959"
          d="M456.94,155.92l-2.04,3.11c-.8,1.22-2.43,1.56-3.64,.76l-23.2-15.21c-1.22-.8-1.55-2.43-.76-3.64l.11-.17c.09,.08,.2,.16,.31,.24l23.2,15.21c1.22,.8,2.85,.46,3.64-.76l1.93-2.94c.96,.85,1.17,2.31,.45,3.41Z"></path>
    <rect width="41" height="16" x="421.63" y="140.41" fill="none" stroke="#000" stroke-miterlimit="10" stroke-width="5"
          rx="4.69" ry="4.69" transform="rotate(33.24 442.173 148.432)"></rect>
    <circle cx="440.06" cy="185.32" r="3.5" fill="#595959"></circle>
    <circle cx="440.98" cy="179.35" r="1" fill="#595959"></circle>
    <circle cx="409.49" cy="159.9" r="3" fill="#fff"></circle>
    <circle cx="415.34" cy="163.74" r="1" fill="#fff"></circle>
    <circle cx="452.18" cy="156.8" r="2" fill="#595959"></circle>
    <circle cx="453.54" cy="152.9" r="1" fill="#595959"></circle>
    <circle cx="431.24" cy="139.49" r="2" fill="#fff"></circle>
    <circle cx="436.26" cy="142.78" r="1" fill="#fff"></circle>
  </g>
</svg>
