<?xml version="1.0" encoding="UTF-8"?>
<svg width="25px" height="25px" viewBox="7 6 10 12" xmlns="http://www.w3.org/2000/svg"
     xmlns:xlink="http://www.w3.org/1999/xlink">
  <defs>
    <path
      d="M5.97278069,8.16632957 L6.65150986,9.13595457 C6.43494266,9.15636974 6.21753717,9.16666291 6,9.16666291 C3.50396819,9.16666291 1.31315569,7.83439207 0.138468192,5.84101707 C-0.0461560641,5.52772876 -0.0461560641,5.13890955 0.138468192,4.82562124 C0.638947359,3.97632957 1.32415569,3.24697541 2.13896819,2.68943374 L3.32807236,4.38816291 C3.22367653,4.68374624 3.16667653,5.00180874 3.16667653,5.33332957 C3.16667653,6.89032957 4.41948903,8.15170457 5.97278069,8.16632957 Z M11.8615515,5.84101707 C11.2018224,6.96053791 10.220989,7.87143374 9.04540569,8.45507957 L9.04563486,8.45539207 L9.90959319,9.68872541 C10.0679265,9.91497541 10.0129265,10.2266421 9.78667653,10.3849754 L9.51355153,10.5762254 C9.28730153,10.7345587 8.97563486,10.6795587 8.81730153,10.4533087 L2.09042653,0.977912907 C1.93209319,0.751662907 1.98709319,0.43999624 2.21334319,0.281662907 L2.48646819,0.0904129065 C2.71271819,-0.0679204268 3.02438486,-0.0129204268 3.18271819,0.213329573 L4.24600986,1.72618374 C4.80584319,1.57866291 5.39386403,1.5 6.00001362,1.5 C8.49605153,1.5 10.686864,2.83226707 11.8615515,4.82564207 C12.0461542,5.13892881 12.0461542,5.52773034 11.8615515,5.84101707 Z M8.83334319,5.33332957 C8.83334319,3.76720457 7.56588486,2.49999624 6.00000986,2.49999624 C5.62628069,2.49999624 5.26967653,2.57235041 4.94315569,2.70357957 L5.34521819,3.26728791 C5.88415569,3.09705874 6.49196819,3.13889207 7.02021819,3.42166291 L7.01959319,3.42166291 C6.52688486,3.42166291 6.12750986,3.82103791 6.12750986,4.31374624 C6.12750986,4.80595457 6.52640569,5.20582957 7.01959319,5.20582957 C7.51230153,5.20582957 7.91167653,4.80645457 7.91167653,4.31374624 L7.91167653,4.31312124 C8.29630153,5.03166291 8.25150986,5.93632957 7.73980153,6.62457957 L7.73980153,6.62478791 L8.14217653,7.18855874 C8.57284319,6.69166291 8.83334319,6.04320457 8.83334319,5.33332957 Z M5.45863486,7.43180874 L3.84342653,5.12437124 C3.73896819,6.21576707 4.45413486,7.17341291 5.45863486,7.43180874 Z"
      id="path-1"></path>
  </defs>
  <g id="Solid/eye-slash" transform="translate(5.999990, 6.666670)">
    <mask id="mask-2" fill="white">
      <use xlink:href="#path-1"></use>
    </mask>
    <g id="Mask"></g>
    <g id="🎨-color" mask="url(#mask-2)" fill="#FFFFFF">
      <g transform="translate(0.000010, -0.666670)" id="White">
        <rect x="0" y="0" width="12" height="12"></rect>
      </g>
    </g>
  </g>
</svg>
