<?xml version="1.0" encoding="UTF-8"?>
<svg height="100%" width="100%" viewBox="0 -1 12 10" xmlns="http://www.w3.org/2000/svg"
     xmlns:xlink="http://www.w3.org/1999/xlink" fill="#FFFFFF">
  <defs>
    <path
      d="M11.8409942,3.31988215 C10.6683426,1.32996187 8.481327,0 5.98961123,0 C3.4968556,0 1.31031833,1.33089775 0.138228213,3.31988215 C-0.0460760709,3.6326275 -0.0460760709,4.02077285 0.138228213,4.3335182 C1.31087986,6.32341768 3.49789546,7.65337955 5.98961123,7.65337955 C8.48236686,7.65337955 10.6689041,6.3224818 11.8409942,4.3334974 C12.0252993,4.0207597 12.0252993,3.63261985 11.8409942,3.31988215 Z M5.98961123,6.65511265 C4.42645005,6.65511265 3.16118835,5.39007972 3.16118835,3.82668977 C3.16118835,2.2635286 4.42620048,0.998266898 5.98961123,0.998266898 C7.55277241,0.998266898 8.81803411,2.26327903 8.81803411,3.82668977 C8.81803411,5.38985095 7.55302197,6.65511265 5.98961123,6.65511265 Z M8.15252284,3.82668977 C8.15252284,5.0212409 7.18416235,5.98960139 5.98961123,5.98960139 C4.7950601,5.98960139 3.82669962,5.0212409 3.82669962,3.82668977 C3.82669962,3.45841248 3.91885213,3.11170191 4.08117449,2.80818718 L4.08115369,2.80885269 C4.08115369,3.3007279 4.47989892,3.69945234 4.97177414,3.69945234 C5.46364936,3.69945234 5.86239459,3.30070711 5.86239459,2.80885269 C5.86239459,2.31697747 5.46364936,1.91823224 4.97177414,1.91823224 L4.97110863,1.91825303 C5.27462336,1.75593068 5.62133393,1.66377816 5.98961123,1.66377816 C7.18416235,1.66377816 8.15252284,2.63213865 8.15252284,3.82668977 Z"
      id="path-1"></path>
  </defs>
  <g id="Solid/eye">
    <mask id="mask-2" fill="white">
      <use xlink:href="#path-1"></use>
    </mask>
    <g id="Mask"></g>
    <g id="🎨-color" mask="url(#mask-2)">
      <rect x="0" y="0" width="100%" height="100%"></rect>
    </g>
  </g>
</svg>
